HIERARCHY
ROOT root
{
	OFFSET	0	13.1	24.9
	CHANNELS 6  Xposition Yposition Zposition Xrotation Yrotation Zrotation
	JOINT spine_1
	{
		OFFSET	0	9.99999	0
		CHANNELS 3  Xrotation Yrotation Zrotation
		JOINT spine_2
		{
			OFFSET	0	112	-10
			CHANNELS 3  Xrotation Yrotation Zrotation
			JOINT spine_3
			{
				OFFSET	0	206.5	19.3
				CHANNELS 3  Xrotation Yrotation Zrotation
				JOINT spine_4
				{
					OFFSET	0	110.4	14.6
					CHANNELS 3  Xrotation Yrotation Zrotation
					JOINT neck_1
					{
						OFFSET	0	71.8	-50.3
						CHANNELS 3  Xrotation Yrotation Zrotation
						JOINT neck_2
						{
							OFFSET	0	86.2	-25.8
							CHANNELS 3  Xrotation Yrotation Zrotation
							JOINT head_ee
							{
								OFFSET	0	179.8	-8.7
								CHANNELS 3  Xrotation Yrotation Zrotation
								End Site
								{
									OFFSET	1	0	0
								}
							}
						}
					}
					JOINT left_clavicle
					{
						OFFSET	-43.2	22.4	-70.8
						CHANNELS 3  Xrotation Yrotation Zrotation
						JOINT left_shoulder
						{
							OFFSET	-93.9	-5.79999	48.7
							CHANNELS 3  Xrotation Yrotation Zrotation
							JOINT left_elbow
							{
								OFFSET	-291.4	-30.8	15.2
								CHANNELS 3  Xrotation Yrotation Zrotation
								JOINT left_lowarm_twist
								{
									OFFSET	-110.7	-3.89999	13.6
									CHANNELS 3  Xrotation Yrotation Zrotation
									JOINT left_hand
									{
										OFFSET	-110.7	-3.89999	13.6
										CHANNELS 3  Xrotation Yrotation Zrotation
										JOINT left_ee
										{
											OFFSET	-80.8	-5.10001	12.1
											CHANNELS 3  Xrotation Yrotation Zrotation
											End Site
											{
												OFFSET	1	0	0
											}
										}
									}
								}
							}
						}
					}
					JOINT right_clavicle
					{
						OFFSET	43.2	22.4	-70.8
						CHANNELS 3  Xrotation Yrotation Zrotation
						JOINT right_shoulder
						{
							OFFSET	93.9	-5.79999	48.7
							CHANNELS 3  Xrotation Yrotation Zrotation
							JOINT right_elbow
							{
								OFFSET	291.4	-30.8	15.2
								CHANNELS 3  Xrotation Yrotation Zrotation
								JOINT right_lowarm_twist
								{
									OFFSET	110.7	-3.89999	13.6
									CHANNELS 3  Xrotation Yrotation Zrotation
									JOINT right_hand
									{
										OFFSET	110.7	-3.89999	13.6
										CHANNELS 3  Xrotation Yrotation Zrotation
										JOINT right_ee
										{
											OFFSET	80.8	-5.10001	12.1
											CHANNELS 3  Xrotation Yrotation Zrotation
											End Site
											{
												OFFSET	1	0	0
											}
										}
									}
								}
							}
						}
					}
				}
			}
		}
	}
	JOINT left_hip
	{
		OFFSET	-82.8	-127.5	0.300001
		CHANNELS 3  Xrotation Yrotation Zrotation
		JOINT left_knee
		{
			OFFSET	-28.2	-396.7	2.2
			CHANNELS 3  Xrotation Yrotation Zrotation
			JOINT left_ankle
			{
				OFFSET	-11.7	-411.3	35.4
				CHANNELS 3  Xrotation Yrotation Zrotation
				JOINT left_toes
				{
					OFFSET	0	-60	-88.6
					CHANNELS 3  Xrotation Yrotation Zrotation
					JOINT left_foot_ee
					{
						OFFSET	-22.5	-16.5	-42.2
						CHANNELS 3  Xrotation Yrotation Zrotation
						End Site
						{
							OFFSET	1	0	0
						}
					}
				}
			}
		}
	}
	JOINT right_hip
	{
		OFFSET	82.8	-127.5	0.300001
		CHANNELS 3  Xrotation Yrotation Zrotation
		JOINT right_knee
		{
			OFFSET	28.2	-396.7	2.2
			CHANNELS 3  Xrotation Yrotation Zrotation
			JOINT right_ankle
			{
				OFFSET	11.7	-411.3	35.4
				CHANNELS 3  Xrotation Yrotation Zrotation
				JOINT right_toes
				{
					OFFSET	0	-60	-88.6
					CHANNELS 3  Xrotation Yrotation Zrotation
					JOINT right_foot_ee
					{
						OFFSET	22.5	-16.5	-42.2
						CHANNELS 3  Xrotation Yrotation Zrotation
						End Site
						{
							OFFSET	1	0	0
						}
					}
				}
			}
		}
	}
}
MOTION
Frames: 9
Frame Time: 0.02
3007.2 767.576 -696.269 4.6963 59.8111 2.36166 -2.93956 -0.354401 -3.093 -2.93425 -0.156964 -3.10927 -2.91908 0.656413 -3.0433 -2.93197 0.167786 -3.1087 1.53089 15.4467 5.34935 1.9858 22.8356 7.10731 -0.0 0.0 -0.0 8.99504 -0.250031 17.6042 -21.7438 -9.37061 68.773 0.477233 -13.3011 0.0556449 23.6246 0.219036 -2.98857 1.4166 -6.04664 7.00956 -0.0 0.0 -0.0 5.75953 12.0639 -10.6578 2.68338 30.8769 -54.5062 1.07983 28.1423 -0.270665 28.721 -0.104113 3.62923 -0.470535 -7.88273 -0.229832 0.0 0.0 0.0 15.6919 -10.0854 -4.927 -49.7242 -1.19824 7.30141 24.1477 15.6487 -3.27062 12.8551 -0.0 -0.0 -0.0 0.0 -0.0 2.86158 9.48839 -10.4952 -5.02506 -0.174035 -0.751314 7.99232 3.25006 1.16613 6.83453 -0.0 -0.0 0.0 0.0 0.0 
2994.44 762.144 -699.33 2.44325 60.4175 4.08821 -2.55173 -0.507084 -3.05466 -2.54659 -0.311775 -3.0807 -2.52345 0.478143 -3.05932 -2.53651 -0.0107799 -3.09641 0.261427 15.2964 5.69977 0.661256 22.6093 7.63084 -0.0 0.0 -0.0 8.76622 -0.259376 17.1391 -22.5309 -8.65641 70.1063 0.409296 -11.4617 0.0410762 23.697 0.217804 -2.99774 1.35505 -4.30132 7.32364 -0.0 0.0 -0.0 5.52511 12.7846 -10.1163 3.53299 31.4873 -53.3303 1.16119 29.9073 -0.310142 28.5952 -0.107634 3.61355 -0.344762 -6.63414 -0.518662 0.0 0.0 0.0 19.9088 -4.99791 -7.55765 -51.7381 -1.37689 7.55495 21.2525 14.1658 -2.90732 12.3356 -0.0 -0.0 -0.0 0.0 -0.0 1.78366 10.4307 -9.39178 -2.40576 -0.091552 -0.357826 8.57717 4.40048 1.25416 7.82987 -0.0 -0.0 0.0 0.0 0.0 
2976.92 759.791 -706.575 1.42621 59.8402 4.98354 -2.33274 -0.493862 -2.99255 -2.32781 -0.302526 -3.01788 -2.30606 0.459798 -2.99797 -2.3186 -0.0192188 -3.03293 -0.469789 15.4869 5.86427 -0.0848882 23.0097 7.91769 -0.0 0.0 -0.0 8.60368 -0.392793 16.8127 -23.7775 -8.67337 71.1438 0.362446 -10.1789 0.0322803 23.4011 0.222766 -2.96027 1.4661 -2.31946 8.8984 -0.0 0.0 -0.0 5.42935 13.4015 -9.87238 4.88518 31.8288 -53.5187 1.26742 32.121 -0.364889 28.4811 -0.110796 3.59933 -0.218349 -5.19345 -0.738734 0.0 0.0 0.0 22.28 -2.42677 -8.63933 -52.9294 -1.48675 7.70197 18.2221 15.0448 -2.53109 12.109 -0.0 -0.0 -0.0 0.0 -0.0 0.160535 9.82163 -9.23594 -0.67566 -0.0272309 -0.100112 9.7888 2.69882 1.41654 9.26095 -0.0 -0.0 0.0 0.0 0.0 
2959.78 756.259 -726.282 5.62958 58.681 2.18126 -2.38085 -0.222251 -3.01624 -2.37579 -0.0299595 -3.02426 -2.36892 0.728915 -2.93533 -2.38085 0.256408 -3.01353 -1.26183 15.45 6.15033 -0.908099 22.9192 8.32347 -0.0 0.0 -0.0 7.53535 0.282734 14.6544 -24.8243 -9.21738 71.916 0.399128 -11.1843 0.0390797 23.2756 0.224814 -2.94437 1.66573 0.546176 11.4175 -0.0 0.0 -0.0 5.00827 14.0838 -8.92993 5.979 32.58 -55.3539 1.29372 32.6532 -0.378978 28.106 -0.121 3.55249 -0.143772 -4.63635 -0.994859 0.0 0.0 0.0 24.719 -11.8578 -8.79469 -46.2122 -0.908509 6.84504 11.234 26.3923 -1.67721 8.75376 -0.0 -0.0 -0.0 0.0 -0.0 -1.71475 11.1084 -11.0671 -4.64655 -0.16323 -0.694229 13.392 0.744648 1.90049 10.2109 -0.0 -0.0 0.0 0.0 0.0 
2945.38 755.45 -734.723 5.20797 59.4515 2.86942 -2.3248 -0.182168 -2.97745 -2.31986 0.00757785 -2.983 -2.31527 0.752239 -2.88669 -2.32678 0.287111 -2.96918 -1.44849 14.8841 5.38641 -1.1281 22.553 7.48151 -0.0 0.0 -0.0 6.81221 0.866296 13.2209 -25.7898 -9.85593 72.5892 0.454567 -12.6903 0.0505477 23.1963 0.22609 -2.93431 1.87968 2.84571 13.7816 -0.0 0.0 -0.0 4.71293 14.483 -8.27248 7.95276 32.8476 -56.6075 1.29807 32.7405 -0.381326 27.4868 -0.137167 3.47506 -0.172706 -3.0927 -0.155293 0.0 0.0 0.0 23.7599 -18.556 -9.24364 -40.3166 -0.487031 6.04254 5.3592 27.7648 -0.820696 6.86335 -0.0 -0.0 -0.0 0.0 -0.0 -1.81422 11.1589 -11.8546 -6.22964 -0.205907 -0.933424 18.1299 -3.7563 2.50097 11.1145 -0.0 -0.0 0.0 0.0 0.0 
2926.1 755.446 -741.39 4.19619 59.6766 3.89498 -2.33511 -0.227297 -2.75935 -2.33088 -0.0513198 -2.76822 -2.32396 0.641836 -2.69333 -2.33402 0.208591 -2.76083 -1.41306 14.178 5.4427 -1.12351 21.2172 7.45752 -0.0 0.0 -0.0 6.62847 1.88005 12.8605 -26.3933 -10.5433 72.8953 0.451056 -12.5955 0.0497793 22.3737 0.238498 -2.82997 1.90584 4.49107 14.5911 -0.0 0.0 -0.0 4.53711 14.8332 -7.87161 9.67628 32.7132 -57.6 1.31176 33.0146 -0.388758 27.8543 -0.127672 3.52104 -0.165631 -0.260473 0.99556 0.0 0.0 0.0 24.1045 -18.9094 -9.47316 -37.607 -0.321587 5.66035 0.899568 27.2255 -0.138799 5.03693 -0.0 -0.0 -0.0 0.0 -0.0 -2.86757 11.9116 -11.8451 -4.51899 -0.159504 -0.675008 18.2414 -5.08987 2.51219 10.902 -0.0 -0.0 0.0 0.0 0.0 
2906.99 749.054 -749.597 3.67294 60.376 4.54039 -2.21265 -0.337274 -3.10613 -2.2073 -0.139038 -3.12128 -2.19405 0.638189 -3.05856 -2.20708 0.147383 -3.1209 -2.23902 14.778 5.96622 -1.95108 22.0926 8.18612 -0.0 0.0 -0.0 6.36327 2.1972 12.3464 -27.2056 -10.6727 73.8429 0.462083 -12.8932 0.0522118 22.5529 0.235923 -2.85272 2.0805 5.60802 16.2039 -0.0 0.0 -0.0 4.35132 13.2477 -7.59994 11.814 32.2071 -58.1094 1.35307 33.8311 -0.411513 27.3036 -0.141792 3.45211 -0.0818458 -0.0498547 0.52546 0.0 0.0 0.0 23.0239 -24.4993 -8.69834 -33.0084 -0.0828727 4.9956 -1.52498 26.6332 0.235694 3.91467 -0.0 -0.0 -0.0 0.0 -0.0 -4.20411 11.6132 -11.8391 -3.9244 -0.141569 -0.585519 20.7521 -6.9549 2.82349 11.4003 -0.0 -0.0 0.0 0.0 0.0 
2885.62 743.844 -753.654 5.42359 60.6622 2.52888 -2.21862 -0.378705 -3.01243 -2.21359 -0.186339 -3.0304 -2.19827 0.569979 -2.98218 -2.21066 0.0920723 -3.03472 -1.81916 15.0557 5.93035 -1.50455 22.5223 8.12421 -0.0 0.0 -0.0 6.8406 1.89141 13.2733 -28.3138 -10.8709 74.1212 0.381112 -10.6913 0.0356611 22.3793 0.238418 -2.83069 2.15325 6.53042 17.0422 -0.0 0.0 -0.0 4.20855 14.1366 -7.22884 11.4597 32.329 -57.4951 1.36701 34.1031 -0.419299 27.6204 -0.133751 3.49177 -0.368506 0.00623227 2.46414 0.0 0.0 0.0 22.3623 -27.17 -8.66993 -27.6979 0.125334 4.20751 -4.8429 23.476 0.740954 2.94946 -0.0 -0.0 -0.0 0.0 -0.0 -7.23262 12.7672 -10.427 -3.39839 -0.124929 -0.506507 22.5679 -5.72874 3.04452 12.0597 -0.0 -0.0 0.0 0.0 0.0 
2860.0 740.566 -755.271 6.57732 60.2503 0.713437 -2.23864 -0.357546 -3.02119 -2.23358 -0.164666 -3.0378 -2.21938 0.593941 -2.98376 -2.23178 0.115485 -3.04006 -1.49657 14.7557 5.42107 -1.18399 22.3038 7.51037 -0.0 0.0 -0.0 6.70924 2.53855 13.0148 -28.8238 -10.8763 75.1987 0.367383 -10.3146 0.0331585 22.3562 0.238745 -2.82776 2.15222 7.07838 17.2346 -0.0 0.0 -0.0 3.66551 14.2581 -6.06876 11.9442 32.5554 -57.3998 1.38209 34.3955 -0.427788 27.4902 -0.137081 3.47548 -0.265382 0.747112 2.09105 0.0 0.0 0.0 21.1285 -28.1126 -7.90984 -22.7214 0.253399 3.45476 -6.55853 23.119 1.00467 2.32009 -0.0 -0.0 -0.0 0.0 -0.0 -9.61053 11.8345 -9.17374 -3.03284 -0.112938 -0.451689 23.6605 -9.23581 3.17685 13.0299 -0.0 -0.0 0.0 0.0 0.0 
